<svg xmlns="http://www.w3.org/2000/svg" width="1440" height="480" viewBox="0 0 1440 480" role="img" aria-labelledby="title desc">
  <title id="title">lufy-ai logo</title>
  <desc id="desc">An original straw-hat inspired lufy-ai logo with agent crew nodes, a compass route, and an OpenCode workflow path.</desc>
  <defs>
    <linearGradient id="canvas" x1="0" y1="0" x2="1" y2="1">
      <stop offset="0%" stop-color="#f8fbff"/>
      <stop offset="48%" stop-color="#eefaf8"/>
      <stop offset="100%" stop-color="#fff7ed"/>
    </linearGradient>
    <linearGradient id="straw" x1="0" y1="0" x2="1" y2="1">
      <stop offset="0%" stop-color="#fde68a"/>
      <stop offset="48%" stop-color="#f59e0b"/>
      <stop offset="100%" stop-color="#b45309"/>
    </linearGradient>
    <linearGradient id="strawLight" x1="0" y1="0" x2="0" y2="1">
      <stop offset="0%" stop-color="#fff7c2"/>
      <stop offset="100%" stop-color="#fbbf24"/>
    </linearGradient>
    <linearGradient id="seaRoute" x1="0" y1="0" x2="1" y2="1">
      <stop offset="0%" stop-color="#0f766e"/>
      <stop offset="55%" stop-color="#2563eb"/>
      <stop offset="100%" stop-color="#f59e0b"/>
    </linearGradient>
    <linearGradient id="deepInk" x1="0" y1="0" x2="1" y2="1">
      <stop offset="0%" stop-color="#0f172a"/>
      <stop offset="100%" stop-color="#164e63"/>
    </linearGradient>
    <filter id="shadow" x="-12%" y="-18%" width="124%" height="146%">
      <feDropShadow dx="0" dy="22" stdDeviation="24" flood-color="#0f172a" flood-opacity="0.14"/>
    </filter>
    <filter id="nodeShadow" x="-30%" y="-30%" width="160%" height="160%">
      <feDropShadow dx="0" dy="10" stdDeviation="8" flood-color="#0f172a" flood-opacity="0.18"/>
    </filter>
    <pattern id="chartGrid" width="36" height="36" patternUnits="userSpaceOnUse">
      <path d="M36 0H0V36" fill="none" stroke="#cbd5e1" stroke-width="1" opacity="0.48"/>
    </pattern>
  </defs>

  <rect width="1440" height="480" rx="40" fill="url(#canvas)"/>
  <rect x="26" y="26" width="1388" height="428" rx="32" fill="url(#chartGrid)" opacity="0.42"/>

  <g fill="none" stroke-linecap="round">
    <path d="M83 366C220 282 337 386 490 303C639 223 757 195 914 254C1054 307 1166 309 1338 196" stroke="#94a3b8" stroke-width="2" stroke-dasharray="8 14" opacity="0.45"/>
    <path d="M117 132C252 196 339 76 494 128C642 178 725 285 886 183C1038 88 1167 109 1308 158" stroke="#cbd5e1" stroke-width="2" stroke-dasharray="5 13" opacity="0.72"/>
    <path d="M1098 356C1149 321 1212 318 1268 351C1294 366 1324 373 1352 361" stroke="#0f766e" stroke-width="3" opacity="0.16"/>
  </g>

  <g transform="translate(88 70)" filter="url(#shadow)">
    <rect x="0" y="0" width="340" height="340" rx="58" fill="#ffffff"/>
    <rect x="20" y="20" width="300" height="300" rx="45" fill="#f8fafc" stroke="#dbeafe" stroke-width="2"/>

    <g transform="translate(170 178)">
      <circle r="118" fill="#ffffff" stroke="#e2e8f0" stroke-width="2"/>
      <circle r="82" fill="#f8fafc" stroke="#bfdbfe" stroke-width="2"/>

      <path d="M-120 36C-78 5-31-10 18-6C67-2 103 17 122 46C82 61 41 68-1 66C-44 64-85 54-120 36Z" fill="url(#straw)" stroke="#92400e" stroke-width="3"/>
      <path d="M-72 17C-46-49 43-50 74 18C43 9-38 9-72 17Z" fill="url(#strawLight)" stroke="#92400e" stroke-width="3"/>
      <path d="M-65 20C-27 33 28 33 68 18" fill="none" stroke="#b91c1c" stroke-width="14" stroke-linecap="round"/>

      <g opacity="0.45" stroke="#92400e" stroke-width="2" stroke-linecap="round">
        <path d="M-95 34C-53 42-6 46 46 42"/>
        <path d="M-39-29C-50-8-55 8-55 24"/>
        <path d="M0-39C-2-13-1 8 4 29"/>
        <path d="M38-28C51-7 57 9 58 24"/>
      </g>

      <g filter="url(#nodeShadow)">
        <path d="M0-104L18-34L82-62L36-14L104 0L36 14L82 62L18 34L0 104L-18 34L-82 62L-36 14L-104 0L-36-14L-82-62L-18-34Z" fill="#ffffff" stroke="#0f172a" stroke-width="5" stroke-linejoin="round"/>
        <path d="M0-78L13-25L61-46L27-10L78 0L27 10L61 46L13 25L0 78L-13 25L-61 46L-27 10L-78 0L-27-10L-61-46L-13-25Z" fill="url(#seaRoute)" opacity="0.18"/>
        <path d="M0-104L18-34L0-46L-18-34Z" fill="#2563eb"/>
        <path d="M104 0L36 14L46 0L36-14Z" fill="#0f766e"/>
        <path d="M0 104L-18 34L0 46L18 34Z" fill="#f59e0b"/>
        <path d="M-104 0L-36-14L-46 0L-36 14Z" fill="#0f766e"/>
      </g>
      <circle r="38" fill="url(#deepInk)" stroke="#ffffff" stroke-width="6"/>
      <circle r="16" fill="none" stroke="#ffffff" stroke-width="5"/>
      <circle r="5" fill="#f59e0b"/>
    </g>

    <g fill="none" stroke-width="12" stroke-linecap="round" stroke-linejoin="round">
      <path d="M170 73C223 80 265 119 277 168" stroke="#2563eb"/>
      <path d="M275 197C261 248 218 284 170 290" stroke="#0f766e"/>
      <path d="M138 286C90 273 59 231 58 182" stroke="#f59e0b"/>
      <path d="M63 146C78 99 118 74 160 73" stroke="#0f766e"/>
    </g>

    <g filter="url(#nodeShadow)">
      <circle cx="170" cy="73" r="24" fill="#2563eb"/>
      <circle cx="277" cy="180" r="24" fill="#0f766e"/>
      <circle cx="170" cy="290" r="24" fill="#f59e0b"/>
      <circle cx="58" cy="180" r="24" fill="#0f766e"/>
    </g>
    <g fill="#ffffff" font-family="Avenir Next, Manrope, Segoe UI, sans-serif" font-size="16" font-weight="850" text-anchor="middle">
      <text x="170" y="79">E</text>
      <text x="277" y="186">A</text>
      <text x="170" y="296">D</text>
      <text x="58" y="186">V</text>
    </g>
  </g>

  <g transform="translate(494 92)">
    <text x="0" y="78" fill="#0f172a" font-family="Avenir Next, Manrope, Segoe UI, sans-serif" font-size="86" font-weight="850" letter-spacing="0">lufy-ai</text>
    <text x="4" y="123" fill="#334155" font-family="Avenir Next, Manrope, Segoe UI, sans-serif" font-size="25" font-weight="650" letter-spacing="0">tripulacion de agentes para navegar cambios de software</text>

    <g transform="translate(0 160)">
      <rect x="0" y="0" width="716" height="78" rx="24" fill="#0f172a"/>
      <path d="M35 39H681" stroke="#334155" stroke-width="2" stroke-dasharray="6 12"/>
      <g fill="#ffffff">
        <circle cx="22" cy="39" r="6"/>
        <circle cx="178" cy="39" r="6"/>
        <circle cx="352" cy="39" r="6"/>
        <circle cx="500" cy="39" r="6"/>
        <circle cx="680" cy="39" r="6"/>
      </g>
      <g font-family="Avenir Next, Manrope, Segoe UI, sans-serif" font-size="19" font-weight="850">
        <text x="36" y="46" fill="#2dd4bf">explore</text>
        <text x="193" y="46" fill="#93c5fd">propose</text>
        <text x="367" y="46" fill="#bae6fd">apply</text>
        <text x="515" y="46" fill="#fde68a">verify</text>
        <text x="623" y="46" fill="#fed7aa">deliver</text>
      </g>
    </g>

    <g transform="translate(0 268)" font-family="Avenir Next, Manrope, Segoe UI, sans-serif" font-size="19" font-weight="800">
      <rect x="0" y="-30" width="148" height="44" rx="14" fill="#ecfeff" stroke="#99f6e4"/>
      <rect x="166" y="-30" width="148" height="44" rx="14" fill="#eff6ff" stroke="#bfdbfe"/>
      <rect x="332" y="-30" width="148" height="44" rx="14" fill="#fffbeb" stroke="#fde68a"/>
      <text x="22" y="-2" fill="#0f766e">OpenSpec</text>
      <text x="197" y="-2" fill="#1d4ed8">Subagents</text>
      <text x="362" y="-2" fill="#b45309">Delivery</text>
    </g>
  </g>

  <g transform="translate(1230 104)" opacity="0.9">
    <circle cx="48" cy="48" r="42" fill="#ffffff" stroke="#dbeafe" stroke-width="2"/>
    <path d="M48 15L58 48L48 81L38 48Z" fill="#0f172a"/>
    <path d="M15 48L48 38L81 48L48 58Z" fill="#0f766e" opacity="0.85"/>
    <circle cx="48" cy="48" r="9" fill="#f59e0b"/>
    <path d="M-12 188C27 158 70 160 111 189" fill="none" stroke="url(#seaRoute)" stroke-width="8" stroke-linecap="round"/>
    <circle cx="-12" cy="188" r="10" fill="#0f766e"/>
    <circle cx="111" cy="189" r="10" fill="#2563eb"/>
  </g>
</svg>
